<?xml version="1.0" standalone="no"?>
<!DOCTYPE svg PUBLIC "-//W3C//DTD SVG 20010904//EN"
 "http://www.w3.org/TR/2001/REC-SVG-20010904/DTD/svg10.dtd">
<svg version="1.0" xmlns="http://www.w3.org/2000/svg"
 width="364.000000pt" height="110.000000pt" viewBox="0 0 364.000000 110.000000"
 preserveAspectRatio="xMidYMid meet">

<g transform="translate(0.000000,110.000000) scale(0.100000,-0.100000)"
fill="#393939" stroke="none">
<path d="M1740 1010 c-261 -70 -915 -240 -927 -240 -9 0 -13 15 -13 47 0 67
-35 122 -102 159 l-53 29 -247 3 c-239 3 -248 3 -248 -16 0 -15 9 -21 41 -25
23 -3 46 -11 50 -19 15 -24 20 -113 17 -337 -4 -252 -1 -243 -83 -254 -25 -4
-59 -14 -76 -22 l-30 -16 3 -107 3 -107 990 0 990 0 3 120 3 120 -78 0 c-92 0
-130 20 -164 87 -46 90 -9 196 84 245 29 14 127 20 147 8 7 -4 10 43 8 151
l-3 157 -80 23 c-99 29 -106 29 -235 -6z m-1158 -67 c50 -29 78 -77 78 -136 0
-117 -95 -183 -235 -163 l-45 7 0 149 c0 131 2 150 18 160 27 17 145 6 184
-17z m203 -420 l0 -188 -110 0 c-109 1 -255 25 -283 48 -9 7 -12 39 -10 116 3
100 4 106 23 103 145 -24 256 0 327 71 24 23 45 41 48 41 3 -1 5 -87 5 -191z
m313 162 c187 -56 179 -285 -12 -340 -144 -42 -286 40 -286 165 0 82 53 147
142 175 57 18 94 18 156 0z m632 -2 c0 -5 -15 -15 -33 -23 l-32 -15 -3 -124
c-3 -132 3 -151 44 -151 12 0 25 -3 27 -8 5 -6 -9 -98 -19 -131 -7 -23 -31 6
-39 47 -11 61 -14 62 -166 62 -151 0 -145 3 -169 -69 -23 -68 -40 -64 -41 8
-1 34 -2 66 -3 73 -1 6 14 15 31 20 30 8 34 15 54 81 12 39 23 99 23 132 1 58
0 60 -31 75 -18 8 -33 18 -33 23 0 4 88 7 195 7 107 0 195 -3 195 -7z"/>
<path d="M941 645 c-39 -33 -55 -84 -46 -143 9 -63 29 -99 68 -122 62 -38 131
-21 162 40 19 36 19 120 1 163 -34 82 -124 112 -185 62z"/>
<path d="M1450 564 c-6 -53 -18 -118 -26 -143 -7 -25 -14 -47 -14 -49 0 -2 37
-2 83 0 l82 3 5 128 c3 71 1 135 -3 143 -5 9 -26 14 -61 14 l-54 0 -12 -96z"/>
<path d="M2948 1004 c-20 -19 -6 -34 30 -34 72 0 72 -1 72 -308 0 -233 -2
-273 -16 -286 -8 -9 -23 -16 -32 -16 -10 0 -34 -9 -55 -20 -28 -15 -39 -17
-42 -8 -3 7 -6 103 -7 213 l-3 199 -365 108 c-201 59 -371 108 -377 108 -10 0
-13 -35 -13 -140 l0 -140 28 7 c84 24 174 -13 212 -87 67 -132 -58 -293 -203
-260 l-38 8 3 -121 3 -122 630 0 630 0 0 109 0 110 -85 18 c-150 33 -135 16
-138 151 l-3 118 28 -8 c15 -5 64 -8 108 -7 65 0 91 5 140 28 91 42 125 80
139 158 15 82 -29 159 -111 199 -45 21 -63 23 -288 27 -132 2 -243 1 -247 -4z
m426 -59 c61 -31 81 -65 81 -140 0 -72 -19 -106 -74 -139 -38 -22 -145 -32
-183 -17 l-28 11 0 137 c0 140 3 155 30 166 29 12 135 1 174 -18z m-633 -255
c48 -14 90 -60 92 -102 l2 -33 -60 -6 c-33 -4 -95 -7 -137 -8 -42 -1 -80 -5
-83 -11 -10 -16 31 -97 59 -115 42 -28 106 -30 159 -7 43 19 57 19 57 0 0 -13
-73 -55 -118 -69 -34 -10 -53 -10 -97 0 -118 26 -173 124 -130 229 22 51 52
81 110 108 54 26 91 29 146 14z"/>
<path d="M2613 651 c-31 -20 -53 -49 -53 -71 0 -7 30 -10 92 -8 104 3 118 14
76 62 -31 36 -75 42 -115 17z"/>
<path d="M1949 655 c-41 -22 -62 -77 -57 -151 6 -98 63 -157 132 -137 l31 9 3
137 3 137 -26 10 c-35 13 -55 12 -86 -5z"/>
<path d="M2160 650 c-18 -18 -20 -33 -20 -139 0 -133 6 -145 66 -145 66 0 113
85 98 179 -14 100 -93 156 -144 105z"/>
</g>
</svg>
