<svg id="Line" height="512" viewBox="0 0 64 64" width="512" xmlns="http://www.w3.org/2000/svg"><path d="m44 19.83a16 16 0 0 0 -12 26.57l-2 2-.88-.88a3.08 3.08 0 0 0 -4.24 0l-7.17 7.18a3 3 0 0 0 0 4.24l3.17 3.17a3 3 0 0 0 4.24 0l7.17-7.11a3 3 0 0 0 0-4.24l-.88-.88 2-2a16 16 0 1 0 10.59-28.05zm0 26a1 1 0 0 1 0-2 8 8 0 0 0 8-8 1 1 0 0 1 2 0 10 10 0 0 1 -10 10z" fill="#c4a2fc"/><path d="m31.66 21.88a10 10 0 0 1 -17.32 0 1 1 0 1 1 1.73-1 8 8 0 0 0 13.86 0 1 1 0 1 1 1.73 1zm-27.66-11a1 1 0 0 1 1-1h2.46l5-7.54a3 3 0 0 1 2.86-1.34l7.68.87 7.68-.87a3 3 0 0 1 2.83 1.32l5 7.54h2.49a1 1 0 0 1 0 2h-2.8a16 16 0 0 1 -9.44 19.91 19 19 0 0 1 13.09 15.69 3 3 0 0 1 -3 3.42h-31.72a3 3 0 0 1 -3-3.42 19 19 0 0 1 13.11-15.67 16 16 0 0 1 -9.44-19.91h-2.8a1 1 0 0 1 -1-1zm5.87-1h26.26l-1.33-2h-23.6zm3.13 6a1 1 0 0 0 1 1h5a1 1 0 0 0 1-1v-4h-7zm9-2h2v-2h-2zm4 2a1 1 0 0 0 1 1h5a1 1 0 0 0 1-1v-4h-7zm-3 17c-.53 0-1.06 0-1.58.08l1.58 4.76 1.58-4.72c-.52-.09-1.05-.12-1.58-.12zm3.59.39-2.59 7.73v7.84h1.59l2.12-2.13-1.54-2.32a1 1 0 0 1 .23-1.35l3.47-2.6-1.7-6.78c-.52-.13-1.05-.27-1.58-.39zm-4.59 15.61v-7.88l-2.59-7.77c-.53.12-1.06.26-1.58.43l-1.7 6.78 3.47 2.6a1 1 0 0 1 .23 1.35l-1.54 2.32 2.12 2.13zm-14.87 0h3l.87-5.17a1 1 0 0 1 2 .29l-.81 4.84h5.41l-1.3-1.29a1 1 0 0 1 -.12-1.27l1.47-2.21-3.25-2.39a1 1 0 0 1 -.37-1l1.51-6a17 17 0 0 0 -9.4 13.1 1 1 0 0 0 .99 1.1zm23.33-14.27 1.51 6a1 1 0 0 1 -.37 1l-3.24 2.43 1.47 2.21a1 1 0 0 1 -.12 1.27l-1.3 1.29h5.41l-.82-4.81a1 1 0 0 1 2-.33l.86 5.17h3a1 1 0 0 0 1-1.17 17 17 0 0 0 -9.4-13.06zm5.6-22.73h-1.06v4a3 3 0 0 1 -3 3h-5a3 3 0 0 1 -3-3h-2a3 3 0 0 1 -3 3h-5a3 3 0 0 1 -3-3v-4h-1.06a14 14 0 1 0 26.12 0zm-23.52-6h20.93l-1.63-2.43a1 1 0 0 0 -.94-.45l-7.79.86h-.22l-7.79-.86a1 1 0 0 0 -.94.44z" fill="#c6c6c7"/></svg>