<?xml version="1.0"?>
<svg xmlns="http://www.w3.org/2000/svg" id="Line" width="512" height="512" viewBox="0 0 64 64"><path d="M63,21.5v38a3,3,0,0,1-3,3H54v-1a13.011,13.011,0,0,0-8.384-12.138,10,10,0,1,0-9.232,0A13.011,13.011,0,0,0,28,61.5v1H22a3,3,0,0,1-3-3v-38a3,3,0,0,1,3-3H60A3,3,0,0,1,63,21.5Zm-22,29a11.013,11.013,0,0,0-11,11v1H52v-1A11.013,11.013,0,0,0,41,50.5Zm0-18a8,8,0,1,0,8,8A8.009,8.009,0,0,0,41,32.5Z" style="fill:#c4a2fc"/><path d="M48,1.5H4a3,3,0,0,0-3,3v44a3,3,0,0,0,3,3H24a3,3,0,0,0,3-3v-21H48a3,3,0,0,0,3-3V4.5A3,3,0,0,0,48,1.5ZM4,3.5H25v22H22.5V25a8.506,8.506,0,0,0-5.019-7.746,5.5,5.5,0,1,0-6.962,0A8.506,8.506,0,0,0,5.5,25v.5H3V4.5A1,1,0,0,1,4,3.5ZM10.5,13A3.5,3.5,0,1,1,14,16.5,3.5,3.5,0,0,1,10.5,13Zm10,12.5H7.5V25a6.5,6.5,0,0,1,13,0ZM10.5,37A3.5,3.5,0,1,1,14,40.5,3.5,3.5,0,0,1,10.5,37Zm10,12.5H7.5V49a6.5,6.5,0,0,1,13,0Zm3.5,0H22.5V49a8.506,8.506,0,0,0-5.019-7.746,5.5,5.5,0,1,0-6.962,0A8.506,8.506,0,0,0,5.5,49v.5H4a1,1,0,0,1-1-1v-21H25v21A1,1,0,0,1,24,49.5ZM34.5,13A3.5,3.5,0,1,1,38,16.5,3.5,3.5,0,0,1,34.5,13Zm10,12.5h-13V25a6.5,6.5,0,0,1,13,0Zm4.5-1a1,1,0,0,1-1,1H46.5V25a8.506,8.506,0,0,0-5.019-7.746,5.5,5.5,0,1,0-6.962,0A8.506,8.506,0,0,0,29.5,25v.5H27V3.5H48a1,1,0,0,1,1,1Z" style="fill:#c6c6c7"/></svg>
